SplineFontDB: 3.2
FontName: font35318
FullName: font35318
FamilyName: funken
Weight: Regular
ItalicAngle: 0
UnderlinePosition: 0
UnderlineWidth: 0
Ascent: 800
Descent: 200
InvalidEm: 0
LayerCount: 2
Layer: 0 0 "Back" 1
Layer: 1 0 "Fore" 0
HasVMetrics: 1
XUID: [1021 429 -995430483 2251208]
OS2Version: 0
OS2_WeightWidthSlopeOnly: 0
OS2_UseTypoMetrics: 0
CreationTime: 1734660594
ModificationTime: 1734660594
PfmFamily: 17
TTFWeight: 400
TTFWidth: 5
LineGap: 90
VLineGap: 90
OS2TypoAscent: 0
OS2TypoAOffset: 1
OS2TypoDescent: 0
OS2TypoDOffset: 1
OS2TypoLinegap: 90
OS2WinAscent: 0
OS2WinAOffset: 1
OS2WinDescent: 0
OS2WinDOffset: 1
HheadAscent: 0
HheadAOffset: 1
HheadDescent: 0
HheadDOffset: 1
OS2Vendor: 'PfEd'
Lookup: 258 0 0 "'kern' Horizontal Kerning in Latin lookup 0" { "'kern' Horizontal Kerning in Latin lookup 0 subtable"  } ['kern' ('latn' <'dflt' > ) ]
DEI: 91125
Encoding: Original
UnicodeInterp: none
NameList: AGL For New Fonts
DisplaySize: -48
AntiAlias: 1
FitToEm: 0
WinInfo: 0 25 9
BeginChars: 90 90

StartChar: .notdef
Encoding: 0 0 0
Width: 410
VWidth: 1024
LayerCount: 2
Fore
SplineSet
0 0 m 1
 1000 0 l 1
 1000 1000 l 1
 0 1000 l 1
 0 0 l 1
EndSplineSet
EndChar

StartChar: 
Encoding: 2 35 2
Width: 410
VWidth: 1024
LayerCount: 2
Fore
SplineSet
100.00001 500 m 1
 88.574192 420 l 1
 0 420 l 1
 0 370 l 1
 81.425792 370 l 1
 68.574212 280 l 1
 0 280 l 1
 0 230 l 1
 61.425812 230 l 1
 49.999992 150 l 1
 100.00001 150 l 1
 111.4258 230 l 1
 211.42579 230 l 1
 200 150 l 1
 249.99999 150 l 1
 261.42581 230 l 1
 350 230 l 1
 350 280 l 1
 268.57421 280 l 1
 281.42579 370 l 1
 350 370 l 1
 350 420 l 1
 288.57419 420 l 1
 300.00001 500 l 1
 249.99999 500 l 1
 238.5742 420 l 1
 138.57421 420 l 1
 150 500 l 1
 100.00001 500 l 1
131.42581 370 m 1
 231.4258 370 l 1
 218.57419 280 l 1
 118.5742 280 l 1
 131.42581 370 l 1
EndSplineSet
EndChar

StartChar: 
Encoding: 3 36 3
Width: 410
VWidth: 1024
LayerCount: 2
Fore
SplineSet
120 750 m 1
 120 700.00001 l 1
 50.000001 700.00001 l 1
 0 650.00001 l 1
 0 500.00001 l 1
 50.000001 450 l 1
 120 450 l 1
 120 250.00001 l 1
 0 250.00001 l 1
 0 200.00002 l 1
 120 200.00002 l 1
 120 150 l 1
 170.00001 150 l 1
 170.00001 200.00001 l 1
 249.99999 200.00001 l 1
 300 250.00001 l 1
 300 450 l 1
 249.99999 500.00001 l 1
 170 500.00001 l 1
 170 650.00001 l 1
 300 650.00001 l 1
 300 700.00001 l 1
 170.00001 700.00001 l 1
 170.00001 750 l 1
 120 750 l 1
99.999999 650.00001 m 1
 120 650.00001 l 1
 120 500.00001 l 1
 99.999999 500.00001 l 1
 99.999999 650.00001 l 1
170.00001 450 m 1
 200.00001 450 l 1
 200.00001 250.00001 l 1
 170.00001 250.00001 l 1
 170.00001 450 l 1
EndSplineSet
EndChar

StartChar: 
Encoding: 4 37 4
Width: 410
VWidth: 1024
LayerCount: 2
Fore
SplineSet
20 750 m 1
 0 730 l 1
 0 670 l 1
 20 650 l 1
 20 650.00029 80 650 80 650 c 1
 100 670 l 1
 100 730 l 1
 80 750 l 1
 20 750 l 1
150 750 m 1
 0 150 l 1
 100 150 l 1
 250 750 l 1
 150 750 l 1
30 730 m 1
 70 730 l 1
 70 670 l 1
 30 670 l 1
 30 730 l 1
170 250 m 1
 150 230 l 1
 150 170 l 1
 170 150 l 1
 170 150.00041 230 150 230 150 c 1
 250 170 l 1
 250 230 l 1
 230 250 l 1
 170 250 l 1
180 230 m 1
 220 230 l 1
 220 170 l 1
 180 170 l 1
 180 230 l 1
EndSplineSet
EndChar

StartChar: 
Encoding: 5 40 5
Width: 410
VWidth: 1024
LayerCount: 2
Fore
SplineSet
100.00023 749.99984 m 1
 0 650 l 1
 0 250.00035 l 1
 100.00023 150.00011 l 1
 199.99957 150.00011 l 1
 199.99957 200.00028 l 1
 149.9999 200.00028 l 1
 99.999833 250.00035 l 1
 99.999833 650 l 1
 149.9999 700.00007 l 1
 199.99957 700.00047 l 1
 199.99957 750.00014 l 1
 100.00023 749.99984 l 1
EndSplineSet
EndChar

StartChar: 
Encoding: 6 41 6
Width: 410
VWidth: 1024
LayerCount: 2
Fore
SplineSet
99.99934 749.99984 m 1
 199.99957 650 l 1
 199.99957 250.00035 l 1
 99.99934 150.00011 l 1
 0 150.00011 l 1
 0 200.00028 l 1
 49.99967 200.00028 l 1
 99.999737 250.00035 l 1
 99.999737 650 l 1
 49.99967 700.00007 l 1
 0 700.00047 l 1
 0 750.00014 l 1
 99.99934 749.99984 l 1
EndSplineSet
EndChar

StartChar: 
Encoding: 7 43 7
Width: 300
VWidth: 1024
Flags: W
LayerCount: 2
Fore
SplineSet
50 400 m 1
 50 350 l 1
 0 350 l 1
 0 300 l 1
 50 300 l 1
 50 250 l 1
 100 250 l 1
 100 300 l 1
 150 300 l 1
 150 350 l 1
 100 350 l 1
 100 400 l 1
 50 400 l 1
EndSplineSet
EndChar

StartChar: 
Encoding: 8 45 8
Width: 410
VWidth: 1024
LayerCount: 2
Fore
SplineSet
0 350 m 1
 150 350 l 1
 150 300.00016 l 1
 0 300.00016 l 1
 0 350 l 1
EndSplineSet
EndChar

StartChar: 
Encoding: 9 46 9
Width: 100
VWidth: 1024
Flags: W
LayerCount: 2
Fore
SplineSet
0 200 m 1
 50 200 l 1
 50 150 l 1
 0 150 l 1
 0 200 l 1
EndSplineSet
EndChar

StartChar: 
Encoding: 10 49 10
Width: 410
VWidth: 1024
LayerCount: 2
Fore
SplineSet
0 500 m 1
 199.99994 500 l 1
 199.99994 150 l 1
 99.999971 150 l 1
 99.999971 449.99991 l 1
 0 449.99991 l 1
 0 500 l 1
EndSplineSet
EndChar

StartChar: 
Encoding: 11 50 11
Width: 410
VWidth: 1024
LayerCount: 2
Fore
SplineSet
0 500 m 1
 250.00003 500.00079 l 1
 300 450.0006 l 1
 300 400.00089 l 1
 250.00003 350.00079 l 1
 100.00003 200.0008 l 1
 300 200.0011 l 1
 300 150.001 l 1
 0 150.001 l 1
 0 200 l 1
 200.00002 400.0001 l 1
 200.00002 449.9999 l 1
 0 450.00029 l 1
 0 500 l 1
EndSplineSet
EndChar

StartChar: 
Encoding: 12 51 12
Width: 410
VWidth: 1024
LayerCount: 2
Fore
SplineSet
149.99988 449.99994 m 1
 149.99988 350.00013 l 1
 49.999957 350.00013 l 1
 49.999957 300.00007 l 1
 149.99988 300.00007 l 1
 149.99988 200.00025 l 1
 0 200.00025 l 1
 0 150.00019 l 1
 199.99983 149.9998 l 1
 249.99978 199.99986 l 1
 249.99978 300.00007 l 1
 219.9998 324.99966 l 1
 249.99978 350.00013 l 1
 249.99978 449.99954 l 1
 199.99983 499.9996 l 1
 0 500 l 1
 0 449.99994 l 1
 149.99988 449.99994 l 1
EndSplineSet
EndChar

StartChar: 
Encoding: 13 52 13
Width: 410
VWidth: 1024
LayerCount: 2
Fore
SplineSet
149.99995 499.99981 m 1
 0 349.99986 l 1
 0 250 l 1
 149.99995 250 l 1
 149.99995 149.99983 l 1
 249.99991 149.99983 l 1
 249.99991 250 l 1
 299.9999 250 l 1
 299.9999 299.99978 l 1
 249.99991 299.99978 l 1
 249.99991 499.99981 l 1
 149.99995 499.99981 l 1
149.99995 449.99973 m 1
 149.99995 299.99978 l 1
 49.999993 299.99978 l 1
 49.999993 349.99986 l 1
 149.99995 449.99973 l 1
EndSplineSet
EndChar

StartChar: 
Encoding: 14 53 14
Width: 410
VWidth: 1024
LayerCount: 2
Fore
SplineSet
0 500 m 1
 0 299.99996 l 1
 199.99994 299.99996 l 1
 199.99994 200.00009 l 1
 0 200.00009 l 1
 0 150 l 1
 249.99993 150 l 1
 299.99992 200.00009 l 1
 299.99992 299.99996 l 1
 249.99993 350.00004 l 1
 99.999971 350.00004 l 1
 99.999971 449.99991 l 1
 299.99992 449.99991 l 1
 299.99992 500 l 1
 0 500 l 1
EndSplineSet
EndChar

StartChar: 
Encoding: 15 54 15
Width: 410
VWidth: 1024
LayerCount: 2
Fore
SplineSet
49.999984 500.00009 m 1
 0 450 l 1
 0 200.00018 l 1
 49.999984 150.00009 l 1
 249.99994 150.00009 l 1
 299.99992 200.00018 l 1
 299.99992 300.00005 l 1
 249.99994 350.00013 l 1
 99.999974 350.00013 l 1
 99.999974 450 l 1
 299.99992 450 l 1
 299.99992 500.00009 l 1
 49.999984 500.00009 l 1
99.999974 300.00005 m 1
 199.99995 300.00005 l 1
 199.99995 200.00018 l 1
 99.999974 200.00018 l 1
 99.999974 300.00005 l 1
EndSplineSet
EndChar

StartChar: 
Encoding: 16 55 16
Width: 410
VWidth: 1024
LayerCount: 2
Fore
SplineSet
0 500 m 1
 0 450 l 1
 100 450 l 1
 100 399.99999 l 1
 50.000014 399.99999 l 1
 50.000014 350 l 1
 100 350 l 1
 100 150 l 1
 199.99999 150 l 1
 199.99999 350 l 1
 250 350 l 1
 250 399.99999 l 1
 199.99999 399.99999 l 1
 199.99999 500 l 1
 0 500 l 1
EndSplineSet
EndChar

StartChar: 
Encoding: 17 56 17
Width: 410
VWidth: 1024
LayerCount: 2
Fore
SplineSet
49.999986 499.99992 m 1
 0 449.99984 l 1
 0 400.00005 l 1
 49.999986 370.00006 l 1
 0 349.99997 l 1
 0 200 l 1
 49.999986 149.99992 l 1
 249.99993 149.99992 l 1
 299.99991 200 l 1
 299.99991 349.99997 l 1
 249.99993 370.00006 l 1
 299.99991 400.00005 l 1
 299.99991 449.99984 l 1
 249.99993 499.99992 l 1
 49.999986 499.99992 l 1
99.999977 449.99984 m 1
 200.00004 449.99984 l 1
 200.00004 400.00005 l 1
 99.999977 400.00005 l 1
 99.999977 449.99984 l 1
99.999977 349.99997 m 1
 200.00004 349.99997 l 1
 200.00004 200 l 1
 99.999977 200 l 1
 99.999977 349.99997 l 1
EndSplineSet
EndChar

StartChar: 
Encoding: 18 57 18
Width: 410
VWidth: 1024
LayerCount: 2
Fore
SplineSet
50.000006 500.00006 m 1
 0 449.99995 l 1
 0 299.99996 l 1
 50.000006 299.99996 l 1
 200 299.99996 l 1
 200 200.00008 l 1
 0 200.00008 l 1
 0 150 l 1
 250.00013 150 l 1
 299.99987 200.00008 l 1
 299.99987 449.99995 l 1
 250.00013 500.00006 l 1
 50.000006 500.00006 l 1
100.00013 449.99995 m 1
 200 449.99995 l 1
 200 350.00007 l 1
 100.00013 350.00007 l 1
 100.00013 449.99995 l 1
EndSplineSet
EndChar

StartChar: 
Encoding: 19 58 19
Width: 410
VWidth: 1024
LayerCount: 2
Fore
SplineSet
0 400 m 1
 0 350 l 1
 50 350 l 1
 50 400 l 1
 0 400 l 1
0 250 m 1
 0 200 l 1
 50 200 l 1
 50 250 l 1
 0 250 l 1
EndSplineSet
EndChar

StartChar: 
Encoding: 20 59 20
Width: 410
VWidth: 1024
LayerCount: 2
Fore
SplineSet
50 400 m 1
 50 350 l 1
 100 350 l 1
 100 400 l 1
 50 400 l 1
50 200 m 1
 0 150 l 1
 0 100 l 1
 50 100 l 1
 100 150 l 1
 100 200 l 1
 50 200 l 1
EndSplineSet
EndChar

StartChar: 
Encoding: 21 60 21
Width: 410
VWidth: 1024
LayerCount: 2
Fore
SplineSet
-2.2779541e-06 290.00064 m 1
 69.999911 360.00057 l 1
 139.99983 360.00057 l 1
 69.999911 290.00064 l 1
 139.99983 220.00049 l 1
 69.999911 220.00049 l 1
 -2.2779541e-06 290.00064 l 1
EndSplineSet
EndChar

StartChar: 
Encoding: 22 61 22
Width: 300
VWidth: 1024
Flags: W
LayerCount: 2
Fore
SplineSet
0.00042760713 325.00028 m 1
 0.00042760713 290.00021 l 1
 140.0005 290.00021 l 1
 140.0005 325.00028 l 1
 0.00042760713 325.00028 l 1
0.00042760713 255.00035 m 1
 0.00042760713 220.00028 l 1
 140.0005 220.00028 l 1
 140.0005 255.00035 l 1
 0.00042760713 255.00035 l 1
EndSplineSet
EndChar

StartChar: 
Encoding: 23 62 23
Width: 410
VWidth: 1024
LayerCount: 2
Fore
SplineSet
139.99983 290.00064 m 1
 69.999917 360.00057 l 1
 -2.2779541e-06 360.00057 l 1
 69.999917 290.00064 l 1
 -2.2779541e-06 220.00049 l 1
 69.999917 220.00049 l 1
 139.99983 290.00064 l 1
EndSplineSet
EndChar

StartChar: 
Encoding: 24 63 24
Width: 410
VWidth: 1024
LayerCount: 2
Fore
SplineSet
0 650 m 1
 0 600 l 1
 150 600 l 1
 200 550 l 1
 200 450 l 1
 100 350 l 1
 100 300 l 1
 200 300 l 1
 200 350 l 1
 300 450 l 1
 300 600 l 1
 250 650 l 1
 0 650 l 1
100 250 m 1
 100 150 l 1
 200 150 l 1
 200 250 l 1
 100 250 l 1
EndSplineSet
EndChar

StartChar: 
Encoding: 25 64 25
Width: 410
VWidth: 1024
LayerCount: 2
Fore
SplineSet
49.99978 499.99998 m 1
 0.0001 449.9999 l 1
 0.0001 200.00008 l 1
 49.99978 150 l 1
 300 150 l 1
 300 200.00008 l 1
 69.99998 200.00008 l 1
 49.99978 220.00018 l 1
 49.99978 419.99991 l 1
 79.99977 449.9999 l 1
 229.99972 449.9999 l 1
 249.99992 430.0001 l 1
 249.99992 320.00004 l 1
 229.99972 299.99995 l 1
 199.99973 299.99995 l 1
 199.99973 400.00011 l 1
 120.00006 400.00011 l 1
 99.99997 380.00002 l 1
 99.99997 269.99996 l 1
 120.00006 250.00017 l 1
 249.99992 250.00017 l 1
 300 299.99995 l 1
 300 449.9999 l 1
 249.99992 499.99998 l 1
 49.99978 499.99998 l 1
139.99975 370.00012 m 1
 159.99995 370.00012 l 1
 159.99995 299.99995 l 1
 139.99975 299.99995 l 1
 139.99975 370.00012 l 1
EndSplineSet
EndChar

StartChar: 
Encoding: 26 65 26
Width: 410
VWidth: 1024
LayerCount: 2
Fore
SplineSet
50 750 m 1
 0 700 l 1
 0 150 l 1
 100 150 l 1
 100 450 l 1
 200 450 l 1
 200 150 l 1
 300 150 l 1
 300 700 l 1
 250 750 l 1
 50 750 l 1
100 700 m 1
 200 700 l 1
 200 500 l 1
 100 500 l 1
 100 700 l 1
EndSplineSet
EndChar

StartChar: 
Encoding: 27 66 27
Width: 410
VWidth: 1024
LayerCount: 2
Fore
SplineSet
0 750 m 1
 0 150 l 1
 250.00001 150 l 1
 300 199.9998 l 1
 300 450 l 1
 250.00001 469.9998 l 1
 300 499.9998 l 1
 300 699.99989 l 1
 250.00001 750 l 1
 0 750 l 1
100.00001 699.99989 m 1
 199.99999 699.99989 l 1
 199.99999 499.9998 l 1
 100.00001 499.9998 l 1
 100.00001 699.99989 l 1
100.00001 450 m 1
 199.99999 450 l 1
 199.99999 199.9998 l 1
 100.00001 199.9998 l 1
 100.00001 450 l 1
EndSplineSet
EndChar

StartChar: 
Encoding: 28 67 28
Width: 410
VWidth: 1024
LayerCount: 2
Fore
SplineSet
300 149.9997 m 1
 50.000003 149.9997 l 1
 0 199.9999 l 1
 0 700 l 1
 50.000003 749.9997 l 1
 300 749.9997 l 1
 300 700 l 1
 99.999993 700 l 1
 99.999993 199.9999 l 1
 300 199.9999 l 1
 300 149.9997 l 1
EndSplineSet
EndChar

StartChar: 
Encoding: 29 68 29
Width: 410
VWidth: 1024
LayerCount: 2
Fore
SplineSet
0 750 m 1
 0 151 l 1
 249.58333 151 l 1
 299.5 200.91647 l 1
 299.5 200.91607 299.5 700.08323 299.5 700.08323 c 1
 249.58333 750 l 1
 0 750 l 1
99.83333 700.08323 m 1
 199.66667 700.08323 l 1
 199.66667 200.91647 l 1
 99.83333 200.91647 l 1
 99.83333 700.08323 l 1
EndSplineSet
EndChar

StartChar: 
Encoding: 30 69 30
Width: 410
VWidth: 1024
LayerCount: 2
Fore
SplineSet
0 750 m 1
 0 150 l 1
 300 150 l 1
 300 199.9998 l 1
 99.999991 199.9998 l 1
 99.999991 449.99999 l 1
 250 449.99999 l 1
 250 499.99979 l 1
 99.999991 499.99979 l 1
 99.999991 699.99992 l 1
 300 699.99992 l 1
 300 750 l 1
 0 750 l 1
EndSplineSet
EndChar

StartChar: 
Encoding: 31 70 31
Width: 410
VWidth: 1024
LayerCount: 2
Fore
SplineSet
0 150 m 1
 0 700.0003 l 1
 49.999999 750 l 1
 300 750 l 1
 300 700.0003 l 1
 100 700.0003 l 1
 100 500.00021 l 1
 250.00001 500.00021 l 1
 250.00001 450 l 1
 100 450 l 1
 100 150 l 1
 0 150 l 1
EndSplineSet
EndChar

StartChar: 
Encoding: 32 71 32
Width: 410
VWidth: 1024
LayerCount: 2
Fore
SplineSet
50 750.0001 m 1
 0 700 l 1
 0 199.99991 l 1
 50 150.00011 l 1
 250 150.00011 l 1
 300 199.99991 l 1
 300 499.9999 l 1
 150 499.9999 l 1
 150 450.0001 l 1
 200 450.0001 l 1
 200 199.99991 l 1
 100 199.99991 l 1
 100 700 l 1
 300 700 l 1
 300 750.0001 l 1
 50 750.0001 l 1
EndSplineSet
EndChar

StartChar: 
Encoding: 33 72 33
Width: 410
VWidth: 1024
LayerCount: 2
Fore
SplineSet
0 750 m 1
 0 150 l 1
 99.99995 150 l 1
 99.99995 449.99985 l 1
 199.99989 449.99985 l 1
 199.99989 150 l 1
 299.99984 150 l 1
 299.99984 750 l 1
 199.99989 750 l 1
 199.99989 499.99992 l 1
 99.99995 499.99992 l 1
 99.99995 750 l 1
 0 750 l 1
EndSplineSet
EndChar

StartChar: 
Encoding: 34 73 34
Width: 200
VWidth: 1024
Flags: W
LayerCount: 2
Fore
SplineSet
0 150 m 1
 99.999983 150 l 1
 99.999983 750 l 1
 0 750 l 1
 0 150 l 1
EndSplineSet
EndChar

StartChar: 
Encoding: 35 74 35
Width: 410
VWidth: 1024
LayerCount: 2
Fore
SplineSet
0 300 m 1
 0 200.0002 l 1
 50.000111 150 l 1
 250 150 l 1
 299.99991 200.0002 l 1
 299.99991 750 l 1
 200 750 l 1
 200 200.0002 l 1
 100 200.0002 l 1
 100 300 l 1
 0 300 l 1
EndSplineSet
EndChar

StartChar: 
Encoding: 36 75 36
Width: 410
VWidth: 1024
LayerCount: 2
Fore
SplineSet
0 150 m 1
 0 750 l 1
 99.99989 750 l 1
 99.99989 500.00019 l 1
 200.00019 750 l 1
 300.00038 750 l 1
 200.00019 499.9998 l 1
 299.99999 150 l 1
 200.00019 150 l 1
 99.99989 449.99999 l 1
 99.99989 150 l 1
 0 150 l 1
EndSplineSet
EndChar

StartChar: 
Encoding: 37 76 37
Width: 410
VWidth: 1024
LayerCount: 2
Fore
SplineSet
50.0002 150 m 1
 9e-05 200.0002 l 1
 9e-05 750 l 1
 100 750 l 1
 100 200.0002 l 1
 250 200.0002 l 1
 250 150 l 1
 50.0002 150 l 1
EndSplineSet
EndChar

StartChar: 
Encoding: 38 77 38
Width: 410
VWidth: 1024
LayerCount: 2
Fore
SplineSet
0 150 m 1
 0 750 l 1
 99.9999 750 l 1
 200.00021 650.0001 l 1
 300.00001 750 l 1
 399.99991 750 l 1
 399.99991 150 l 1
 300.00001 150 l 1
 300.00001 650.0001 l 1
 200.00021 549.9999 l 1
 99.9999 650.0001 l 1
 99.9999 150 l 1
 0 150 l 1
EndSplineSet
EndChar

StartChar: 
Encoding: 39 78 39
Width: 410
VWidth: 1024
LayerCount: 2
Fore
SplineSet
0 150 m 1
 0 750 l 1
 100.0002 750 l 1
 300 300 l 1
 300 750 l 1
 400.0002 750 l 1
 400.0002 150 l 1
 300 150 l 1
 100.0002 600 l 1
 100.0002 150 l 1
 0 150 l 1
EndSplineSet
EndChar

StartChar: 
Encoding: 40 79 40
Width: 410
VWidth: 1024
LayerCount: 2
Fore
SplineSet
49.999693 750.00013 m 1
 0 700.00004 l 1
 0 200 l 1
 49.999693 150.00021 l 1
 249.99987 150.00021 l 1
 299.99996 200 l 1
 299.99996 700.00004 l 1
 249.99987 750.00013 l 1
 49.999693 750.00013 l 1
99.999887 700.00004 m 1
 199.99967 700.00004 l 1
 199.99967 200 l 1
 99.999887 200 l 1
 99.999887 700.00004 l 1
EndSplineSet
EndChar

StartChar: 
Encoding: 41 80 41
Width: 410
VWidth: 1024
LayerCount: 2
Fore
SplineSet
0 750 m 1
 0 150 l 1
 99.999806 150 l 1
 99.999806 450.00003 l 1
 249.9998 450.00003 l 1
 299.99998 499.99982 l 1
 299.99998 699.99988 l 1
 249.9998 750 l 1
 0 750 l 1
99.999806 699.99988 m 1
 200.00011 699.99988 l 1
 200.00011 499.99982 l 1
 99.999806 499.99982 l 1
 99.999806 699.99988 l 1
EndSplineSet
EndChar

StartChar: 
Encoding: 42 81 42
Width: 0
VWidth: 1024
Flags: W
LayerCount: 2
Fore
SplineSet
49.991856 749.9998 m 1
 0 700 l 1
 0 200.00242 l 1
 49.991856 150.00337 l 1
 199.95383 150.00337 l 1
 199.95383 99.9998 l 1
 299.92809 99.9998 l 1
 299.92809 150.00337 l 1
 249.9404 150.00337 l 1
 299.92809 200.00242 l 1
 299.92809 700 l 1
 249.9404 749.9998 l 1
 49.991856 749.9998 l 1
100.25055 700 m 1
 199.95383 700 l 1
 199.95383 200.00242 l 1
 99.978044 200.00242 l 1
 100.25055 700 l 1
EndSplineSet
EndChar

StartChar: 
Encoding: 43 82 43
Width: 410
VWidth: 1024
LayerCount: 2
Fore
SplineSet
0 750 m 1
 0 150 l 1
 99.9999 150 l 1
 99.9999 450.00001 l 1
 199.9997 450.00001 l 1
 199.9997 150 l 1
 300 150 l 1
 300 450.00001 l 1
 249.9999 499.99979 l 1
 300 549.99989 l 1
 300 699.9999 l 1
 249.9999 750 l 1
 0 750 l 1
99.9999 699.9999 m 1
 199.9997 699.9999 l 1
 199.9997 499.99979 l 1
 99.9999 499.99979 l 1
 99.9999 699.9999 l 1
EndSplineSet
EndChar

StartChar: 
Encoding: 44 83 44
Width: 410
VWidth: 1024
LayerCount: 2
Fore
SplineSet
299.99928 749.99856 m 1
 299.99928 699.99898 l 1
 99.999628 699.99898 l 1
 99.999628 499.99896 l 1
 249.99927 499.99896 l 1
 299.99928 449.99899 l 1
 299.99928 199.99968 l 1
 249.99927 150 l 1
 0 150 l 1
 0 200.00009 l 1
 199.99927 200.00009 l 1
 199.99927 449.99929 l 1
 49.999999 449.99929 l 1
 0 499.99896 l 1
 0 699.99859 l 1
 49.999999 749.99856 l 1
 299.99928 749.99856 l 1
EndSplineSet
EndChar

StartChar: 
Encoding: 45 84 45
Width: 410
VWidth: 1024
LayerCount: 2
Fore
SplineSet
99.99979 150 m 1
 99.99979 699.9999 l 1
 0 699.9999 l 1
 0 750 l 1
 300 750 l 1
 300 699.9999 l 1
 199.9997 699.9999 l 1
 199.9997 150 l 1
 99.99979 150 l 1
EndSplineSet
EndChar

StartChar: 
Encoding: 46 85 46
Width: 410
VWidth: 1024
LayerCount: 2
Fore
SplineSet
50.000767 150.0019 m 1
 0.0008 200.00196 l 1
 0.0008 750 l 1
 100.00083 750 l 1
 100.00083 200.00196 l 1
 200.00036 200.00196 l 1
 200.00036 750 l 1
 300 750 l 1
 300 200.00007 l 1
 250.00043 150 l 1
 50.000767 150.0019 l 1
EndSplineSet
EndChar

StartChar: 
Encoding: 47 86 47
Width: 410
VWidth: 1024
LayerCount: 2
Fore
SplineSet
0 150 m 1
 0 750 l 1
 99.9998 750 l 1
 99.9998 200.0002 l 1
 149.9996 200.0002 l 1
 199.99968 249.99991 l 1
 199.99968 750 l 1
 299.99958 750 l 1
 299.99958 249.99991 l 1
 199.99968 150 l 1
 0 150 l 1
EndSplineSet
EndChar

StartChar: 
Encoding: 48 87 48
Width: 600
VWidth: 1024
Flags: W
LayerCount: 2
Fore
SplineSet
0 750 m 1
 0 150 l 1
 200 150 l 1
 400 150 l 1
 500 250 l 1
 500 750 l 1
 400 750 l 1
 400 250 l 1
 350 200 l 1
 300 200 l 1
 300 250 l 1
 300 750 l 1
 200 750 l 1
 200 200 l 1
 100 200 l 1
 100 750 l 1
 0 750 l 1
EndSplineSet
EndChar

StartChar: 
Encoding: 49 88 49
Width: 410
VWidth: 1024
LayerCount: 2
Fore
SplineSet
0 750 m 1
 0 549.99992 l 1
 50.00029 479.99948 l 1
 0.0004 399.99924 l 1
 0 149.99886 l 1
 100.00049 149.99886 l 1
 100.00049 449.99944 l 1
 200.00058 449.99944 l 1
 200.00058 149.99886 l 1
 300.00056 149.99886 l 1
 300.00096 399.99924 l 1
 250.00076 479.99948 l 1
 300.00056 549.99992 l 1
 300.00056 750 l 1
 200.00058 750 l 1
 200.00058 499.99973 l 1
 100.00049 499.99973 l 1
 100.00049 750 l 1
 0 750 l 1
EndSplineSet
EndChar

StartChar: 
Encoding: 50 89 50
Width: 410
VWidth: 1024
LayerCount: 2
Fore
SplineSet
99.9999 150.00031 m 1
 99.9999 450.00032 l 1
 0 550.0002 l 1
 0 750 l 1
 99.9999 750.00031 l 1
 99.9999 550.0002 l 1
 150 500.00051 l 1
 200.0001 550.0002 l 1
 200.0001 750.00031 l 1
 300 750.00031 l 1
 300 550.0002 l 1
 200.0001 450.00032 l 1
 200.0001 150.00031 l 1
 99.9999 150.00031 l 1
EndSplineSet
EndChar

StartChar: 
Encoding: 51 90 51
Width: 410
VWidth: 1024
LayerCount: 2
Fore
SplineSet
0 700.0004 m 1
 0 750.00012 l 1
 300.00006 750.00012 l 1
 300.00006 700.0004 l 1
 300.00006 650.00029 l 1
 100.00022 249.99992 l 1
 100.00022 199.99981 l 1
 300.00006 200.0002 l 1
 300.00006 150 l 1
 0 150 l 1
 0 250.00031 l 1
 200.00014 649.9999 l 1
 200.00014 700.00001 l 1
 0 700.0004 l 1
EndSplineSet
EndChar

StartChar: 
Encoding: 52 97 52
Width: 410
VWidth: 1024
LayerCount: 2
Fore
SplineSet
0 499.99998 m 2
 0 450.00029 l 1
 199.99998 450.00029 l 1
 199.99998 400.00009 l 1
 49.999996 400.00009 l 1
 0 349.99998 l 1
 0 200 l 1
 51.171894 150.0003 l 1
 249.99999 150.0003 l 1
 299.99998 150.0003 l 1
 299.99998 499.99998 l 2
 299.99998 500.00038 0 499.99998 0 499.99998 c 2
100 349.99998 m 1
 199.99998 349.99998 l 1
 199.99998 200 l 1
 100 200 l 1
 100 349.99998 l 1
EndSplineSet
EndChar

StartChar: 
Encoding: 53 98 53
Width: 410
VWidth: 1024
LayerCount: 2
Fore
SplineSet
99.999988 749.99995 m 1
 0 650.00016 l 1
 0 150 l 1
 249.99998 150 l 1
 299.99998 200.00019 l 1
 299.99998 449.99998 l 1
 249.99998 500.00017 l 1
 99.999988 500.00017 l 1
 99.999988 749.99995 l 1
99.999988 449.99998 m 1
 199.99999 449.99998 l 1
 199.99999 200.00019 l 1
 99.999988 200.00019 l 1
 99.999988 449.99998 l 1
EndSplineSet
EndChar

StartChar: 
Encoding: 54 99 54
Width: 410
VWidth: 1024
LayerCount: 2
Fore
SplineSet
300 500 m 1
 50.000013 499.9996 l 1
 3.4e-05 450.0002 l 1
 4e-06 199.99959 l 1
 50.000013 150.00021 l 1
 300 150.00021 l 1
 300 200.00001 l 1
 99.99999 199.99959 l 1
 100.00002 450.0002 l 1
 300 450.0002 l 1
 300 500 l 1
EndSplineSet
EndChar

StartChar: 
Encoding: 55 100 55
Width: 410
VWidth: 1024
LayerCount: 2
Fore
SplineSet
200.00005 749.99981 m 1
 200.00005 500.0001 l 1
 50.0001 500.0001 l 1
 9.8e-05 449.99991 l 1
 9.8e-05 200.00019 l 1
 50.0001 150 l 1
 300 150 l 1
 300 650.00005 l 1
 200.00005 749.99981 l 1
100.00005 449.99991 m 1
 200.00005 449.99991 l 1
 200.00005 200.00019 l 1
 100.00005 200.00019 l 1
 100.00005 449.99991 l 1
EndSplineSet
EndChar

StartChar: 
Encoding: 56 101 56
Width: 410
VWidth: 1024
LayerCount: 2
Fore
SplineSet
49.99996 499.99983 m 1
 0 449.99966 l 1
 0 200 l 1
 49.99996 149.99983 l 1
 299.9998 149.99983 l 2
 299.99991 149.99943 299.9998 200 299.9998 200 c 1
 99.99994 200 l 1
 99.99994 299.99974 l 1
 299.9998 299.99974 l 1
 299.9998 449.99966 l 1
 248.82795 499.99983 l 1
 49.99996 499.99983 l 1
99.99994 449.99966 m 1
 199.99987 449.99966 l 1
 199.99987 349.99992 l 1
 99.99994 349.99992 l 1
 99.99994 449.99966 l 1
EndSplineSet
EndChar

StartChar: 
Encoding: 57 102 57
Width: 410
VWidth: 1024
LayerCount: 2
Fore
SplineSet
50 750 m 1
 0 700 l 1
 0 600 l 1
 0 550 l 1
 0 150 l 1
 100 150 l 1
 100 550 l 1
 200 550 l 1
 250 599.99805 l 1
 200 600 l 1
 100 600 l 1
 100 700 l 1
 300 700 l 1
 300 750 l 1
 50 750 l 1
EndSplineSet
EndChar

StartChar: 
Encoding: 58 103 58
Width: 410
VWidth: 1024
LayerCount: 2
Fore
SplineSet
51.17189 500.0001 m 1
 0 450.00001 l 1
 1.1720998 189.99986 l 1
 51.17209 149.99997 l 1
 201.17206 149.99997 l 1
 201.17206 50.00019 l 1
 0 50.00019 l 1
 0 0 l 1
 249.99995 0 l 1
 299.99994 50.00019 l 1
 299.99994 500.0001 l 1
 249.99995 500.0001 l 1
 51.17189 500.0001 l 1
101.17188 450.00001 m 1
 201.17186 450.00001 l 1
 201.17186 200.00016 l 1
 101.17188 200.00016 l 1
 101.17188 450.00001 l 1
EndSplineSet
EndChar

StartChar: 
Encoding: 59 104 59
Width: 410
VWidth: 1024
LayerCount: 2
Fore
SplineSet
99.99989 750.00002 m 1
 -0.00016 650.00006 l 1
 -0.00016 150.00002 l 1
 100 150.00002 l 1
 100 450.00017 l 1
 199.99985 450.00017 l 1
 199.99985 150.00002 l 1
 300.0002 150.00002 l 1
 300.0002 450.00017 l 1
 249.99998 500 l 1
 100 500 l 1
 99.99989 750.00002 l 1
EndSplineSet
EndChar

StartChar: 
Encoding: 60 105 60
Width: 200
VWidth: 1024
Flags: W
LayerCount: 2
Fore
SplineSet
0 649.99805 m 1
 0 549.99805 l 1
 100 549.99805 l 1
 100 649.99805 l 1
 0 649.99805 l 1
0 500 m 1
 0 150 l 1
 100 150 l 1
 100 500 l 1
 0 500 l 1
EndSplineSet
EndChar

StartChar: 
Encoding: 61 106 61
Width: 300
VWidth: 1024
Flags: W
LayerCount: 2
Fore
SplineSet
100 650 m 1
 100 550 l 1
 200 550 l 1
 200 650 l 1
 100 650 l 1
100 500 m 1
 100.002 150 l 1
 100.002 50 l 1
 50 50 l 1
 0 50 l 1
 0 0 l 1
 50 0 l 1
 149.41211 0 l 1
 199.41406 50 l 1
 198.82422 500 l 1
 100 500 l 1
EndSplineSet
EndChar

StartChar: 
Encoding: 62 107 62
Width: 410
VWidth: 1024
LayerCount: 2
Fore
SplineSet
100 750 m 1
 0 650 l 1
 0 500 l 1
 0 150 l 1
 100 150 l 1
 100 287.5 l 1
 210 150 l 1
 300 150 l 1
 150 350 l 1
 300 600 l 1
 210 600 l 1
 100 428.125 l 1
 100 450 l 1
 99.999624 450 100 500 100 500 c 1
 100 750 l 1
EndSplineSet
EndChar

StartChar: 
Encoding: 63 108 63
Width: 200
VWidth: 1024
Flags: W
LayerCount: 2
Fore
SplineSet
0 150 m 1
 100.00025 150 l 1
 100.00025 750 l 1
 0.000369 649.9998 l 1
 0 150 l 1
EndSplineSet
EndChar

StartChar: 
Encoding: 64 109 64
Width: 600
VWidth: 1024
Flags: W
LayerCount: 2
Fore
SplineSet
0 500.00019 m 1
 0 150 l 1
 100.00006 150 l 1
 100.00006 450.00016 l 1
 200.00011 450.00016 l 1
 200.00011 150 l 1
 300.00017 150 l 1
 300.00017 400.12709 l 1
 300.00017 450.00016 l 1
 400.00022 450.00016 l 1
 400.00022 150 l 1
 500.00028 150 l 1
 500.00028 450.00016 l 1
 450.00025 500.00019 l 1
 200.00011 500.00019 l 1
 0 500.00019 l 1
EndSplineSet
EndChar

StartChar: 
Encoding: 65 110 65
Width: 410
VWidth: 1024
LayerCount: 2
Fore
SplineSet
0 500 m 1
 250.00002 500 l 1
 300.00018 450.00016 l 1
 300.00018 150 l 1
 200.00025 150 l 1
 200.00025 450.00016 l 1
 99.999942 450.00016 l 1
 99.999942 150 l 1
 0 150 l 1
 0 500 l 1
EndSplineSet
EndChar

StartChar: 
Encoding: 66 111 66
Width: 410
VWidth: 1024
LayerCount: 2
Fore
SplineSet
50.000249 500.00017 m 1
 0.000178 450 l 1
 0.000178 200.00034 l 1
 50.000249 150.00017 l 1
 249.99994 150.00017 l 1
 300 200.00034 l 1
 300 450 l 1
 249.99994 500.00017 l 1
 50.000249 500.00017 l 1
100.00001 450 m 1
 200.00017 450 l 1
 200.00017 200.00034 l 1
 100.00001 200.00034 l 1
 100.00001 450 l 1
EndSplineSet
EndChar

StartChar: 
Encoding: 67 112 67
Width: 410
VWidth: 1024
LayerCount: 2
Fore
SplineSet
0.5270697 500 m 1
 -0.64453023 0 l 1
 -0.64611723 0.0004 100.52733 0 100.52733 0 c 1
 99.355635 149.99994 l 1
 249.35556 149.99994 l 1
 299.35565 190.00023 l 1
 300.52735 449.99981 l 1
 249.35517 500 l 1
 50.527149 500 l 1
 0.5270697 500 l 1
99.354936 449.99981 m 1
 199.35509 449.99981 l 1
 199.35509 200.00011 l 1
 99.354936 200.00011 l 1
 99.354936 449.99981 l 1
EndSplineSet
EndChar

StartChar: 
Encoding: 68 113 68
Width: 410
VWidth: 1024
LayerCount: 2
Fore
SplineSet
299.35575 500 m 1
 300.52735 0 l 1
 300.52935 0.0004 199.35549 0 199.35549 0 c 1
 200.52718 149.99994 l 1
 50.52726 149.99994 l 1
 0.52716975 190.00023 l 1
 -0.64453025 449.99981 l 1
 50.52765 500 l 1
 249.35567 500 l 1
 299.35575 500 l 1
200.52788 449.99981 m 1
 100.52773 449.99981 l 1
 100.52773 200.00011 l 1
 200.52788 200.00011 l 1
 200.52788 449.99981 l 1
EndSplineSet
EndChar

StartChar: 
Encoding: 69 114 69
Width: 410
VWidth: 1024
LayerCount: 2
Fore
SplineSet
50.00004 500 m 1
 199.99983 500 l 1
 199.99983 449.99996 l 1
 100.00016 449.99958 l 1
 100.00016 150 l 1
 0 150 l 1
 0 449.99958 l 1
 50.00004 500 l 1
EndSplineSet
EndChar

StartChar: 
Encoding: 70 115 70
Width: 410
VWidth: 1024
LayerCount: 2
Fore
SplineSet
299.99991 500 m 1
 50.000111 500 l 1
 0 449.99991 l 1
 0 370.49904 l 1
 50.000111 320.00006 l 1
 200.00007 320.00006 l 1
 200.00007 200.00009 l 1
 0 200.00009 l 1
 0 150 l 1
 249.9998 150 l 1
 299.99991 200.00009 l 1
 299.99991 320.00006 l 1
 249.9998 369.99974 l 1
 99.999846 369.99974 l 1
 99.999846 449.99991 l 1
 299.99991 449.99991 l 1
 299.99991 500 l 1
EndSplineSet
EndChar

StartChar: 
Encoding: 71 116 71
Width: 410
VWidth: 1024
LayerCount: 2
Fore
SplineSet
200.00001 750 m 1
 99.999999 650.00001 l 1
 99.999999 600 l 1
 50.000001 600 l 1
 0 549.99999 l 1
 99.999999 549.99999 l 1
 99.999999 200.00001 l 1
 150 150 l 1
 249.99999 150 l 1
 249.99999 200.00001 l 1
 200.00001 200.00001 l 1
 200.00001 549.99999 l 1
 249.99999 549.99999 l 1
 300 600 l 1
 249.99999 600 l 1
 200.00001 600 l 1
 200.00001 750 l 1
EndSplineSet
EndChar

StartChar: 
Encoding: 72 117 72
Width: 410
VWidth: 1024
LayerCount: 2
Fore
SplineSet
-0.000237 500 m 1
 -0.000237 200.00017 l 1
 49.999833 150 l 1
 249.99992 150 l 1
 299.9996 200.00017 l 1
 299.9996 500 l 1
 199.99975 500 l 1
 199.99975 200.00017 l 1
 100 200.00017 l 1
 100 500 l 1
 -0.000237 500 l 1
EndSplineSet
EndChar

StartChar: 
Encoding: 73 118 73
Width: 410
VWidth: 1024
LayerCount: 2
Fore
SplineSet
0.000183 500 m 1
 0.000183 150 l 1
 199.99981 150 l 1
 300.00002 249.86344 l 1
 300.00002 500 l 1
 199.99981 500 l 1
 199.99981 250.00023 l 1
 150.0001 200.00017 l 1
 100 200.00017 l 1
 100 500 l 1
 0.000183 500 l 1
EndSplineSet
EndChar

StartChar: 
Encoding: 74 119 74
Width: 600
VWidth: 1024
Flags: W
LayerCount: 2
Fore
SplineSet
0 500 m 1
 0 150 l 1
 200 150 l 1
 450 150 l 1
 500 200 l 1
 500 500 l 1
 400 500 l 1
 400 200 l 1
 300 200 l 1
 300 249.87305 l 1
 300 500 l 1
 200 500 l 1
 200 200 l 1
 100 200 l 1
 100 500 l 1
 0 500 l 1
EndSplineSet
EndChar

StartChar: 
Encoding: 75 120 75
Width: 410
VWidth: 1024
LayerCount: 2
Fore
SplineSet
-1.718e-05 500 m 1
 -1.718e-05 399.99999 l 1
 74.980485 325.01949 l 1
 -1.718e-05 250.1367 l 1
 -1.718e-05 150 l 1
 99.999991 150 l 1
 99.999991 300.00001 l 1
 199.99999 300.00001 l 1
 199.99999 150 l 1
 300 150 l 1
 300 249.99999 l 1
 225.01949 324.98049 l 1
 300 399.8633 l 1
 300 500 l 1
 199.99999 500 l 1
 199.99999 349.99999 l 1
 99.999991 349.99999 l 1
 99.999991 500 l 1
 -1.718e-05 500 l 1
EndSplineSet
EndChar

StartChar: 
Encoding: 76 121 76
Width: 410
VWidth: 1024
LayerCount: 2
Fore
SplineSet
1.000304 500.00004 m 1
 1.000304 190.00028 l 1
 51 150 l 1
 201.00005 150 l 1
 201.00005 50.00022 l 1
 1.000304 50.00022 l 1
 1.000304 4e-05 l 1
 251.00013 4e-05 l 1
 301.00022 50.00022 l 1
 301.00022 500.00004 l 1
 201.00005 500.00004 l 1
 201.00005 200.00018 l 1
 101.00018 200.00018 l 1
 101.00018 500.00004 l 1
 1.000304 500.00004 l 1
EndSplineSet
EndChar

StartChar: 
Encoding: 77 122 77
Width: 410
VWidth: 1024
LayerCount: 2
Fore
SplineSet
0 500 m 1
 0 449.99984 l 1
 200.00002 449.99984 l 1
 0 200.00016 l 1
 0 150 l 1
 299.99984 150 l 1
 299.99984 200.00016 l 1
 99.999813 200.00016 l 1
 299.99984 449.99984 l 1
 299.99984 500 l 1
 0 500 l 1
EndSplineSet
EndChar

StartChar: 
Encoding: 78 196 78
Width: 410
VWidth: 1024
LayerCount: 2
Fore
SplineSet
0 750 m 1
 0 657.6923 l 1
 92.3077 657.6923 l 1
 92.3077 750 l 1
 0 750 l 1
184.61538 750 m 1
 184.61538 657.6923 l 1
 276.92308 657.6923 l 1
 276.92308 750 l 1
 184.61538 750 l 1
46.153846 611.53846 m 1
 0 565.38462 l 1
 0 150 l 1
 92.3077 150 l 1
 92.3077 380.76924 l 1
 184.61538 380.76924 l 1
 184.61538 150 l 1
 276.92308 150 l 1
 276.92308 565.38462 l 1
 230.76924 611.53846 l 1
 46.153846 611.53846 l 1
92.3077 565.38462 m 1
 184.61538 565.38462 l 1
 184.61538 426.92308 l 1
 92.3077 426.92308 l 1
 92.3077 565.38462 l 1
EndSplineSet
EndChar

StartChar: 
Encoding: 79 203 79
Width: 0
VWidth: 1024
Flags: W
LayerCount: 2
Fore
SplineSet
0 800.00002 m 1
 0 700.00002 l 1
 100 700.00002 l 1
 100 800.00002 l 1
 0 800.00002 l 1
200.00001 800.00002 m 1
 200.00001 700.00002 l 1
 300 700.00002 l 1
 300 800.00002 l 1
 200.00001 800.00002 l 1
0 650.00001 m 1
 0 150 l 1
 300 150 l 1
 300 200.00001 l 1
 100 200.00001 l 1
 100 400 l 1
 250 400 l 1
 250 450.00001 l 1
 100 450.00001 l 1
 100 600.00001 l 1
 300 600.00001 l 1
 300 650.00001 l 1
 0 650.00001 l 1
EndSplineSet
EndChar

StartChar: 
Encoding: 80 214 80
Width: 410
VWidth: 1024
LayerCount: 2
Fore
SplineSet
0 800 m 1
 0 700 l 1
 100 700 l 1
 100 800 l 1
 0 800 l 1
200 800 m 1
 200 700 l 1
 300 700 l 1
 300 800 l 1
 200 800 l 1
50 650 m 1
 0 600 l 1
 0 200 l 1
 50 150 l 1
 250 150 l 1
 300 200 l 1
 300 600 l 1
 250 650 l 1
 50 650 l 1
100 600 m 1
 200 600 l 1
 200 200 l 1
 100 200 l 1
 100 600 l 1
EndSplineSet
EndChar

StartChar: 
Encoding: 81 220 81
Width: 410
VWidth: 1024
LayerCount: 2
Fore
SplineSet
-0.25585938 800 m 1
 -0.25585938 699.74414 l 1
 100 699.74414 l 1
 100 800 l 1
 -0.25585938 800 l 1
200.25586 800 m 1
 200.25586 699.74414 l 1
 300.51172 699.74414 l 1
 300.51172 800 l 1
 200.25586 800 l 1
0 651.1543 m 1
 0 200 l 1
 50.126953 149.87109 l 1
 250.64062 149.87109 l 1
 300.76953 200 l 1
 300.76953 651.1543 l 1
 200.51172 651.1543 l 1
 200.51172 200 l 1
 100.25586 200 l 1
 100.25586 651.1543 l 1
 0 651.1543 l 1
EndSplineSet
EndChar

StartChar: 
Encoding: 82 228 82
Width: 410
VWidth: 1024
LayerCount: 2
Fore
SplineSet
0 650 m 1
 0 550 l 1
 100 550 l 1
 100 650 l 1
 0 650 l 1
200 650 m 1
 200 550 l 1
 300 550 l 1
 300 650 l 1
 200 650 l 1
0 500 m 1
 0 450 l 1
 200 450 l 1
 200 400 l 1
 50 400 l 1
 0 350 l 1
 0 200 l 1
 51.173828 150 l 1
 250 150 l 1
 300 150 l 1
 300 500 l 2
 300 500.0003 0 500 0 500 c 1
100 350 m 1
 200 350 l 1
 200 200 l 1
 100 200 l 1
 100 350 l 1
EndSplineSet
EndChar

StartChar: 
Encoding: 83 235 83
Width: 410
VWidth: 1024
LayerCount: 2
Fore
SplineSet
0 650 m 1
 0 550 l 1
 100 550 l 1
 100 650 l 1
 0 650 l 1
200 650 m 1
 200 550 l 1
 300 550 l 1
 300 650 l 1
 200 650 l 1
50 500 m 1
 0 450 l 1
 0 200 l 1
 50 150 l 1
 300 150 l 2
 300.0001 149.9996 300 200 300 200 c 1
 100 200 l 1
 100 300 l 1
 300 300 l 1
 300 450 l 1
 248.8281 500 l 1
 50 500 l 1
100 450 m 1
 200 450 l 1
 200 350 l 1
 100 350 l 1
 100 450 l 1
EndSplineSet
EndChar

StartChar: 
Encoding: 84 246 84
Width: 410
VWidth: 1024
LayerCount: 2
Fore
SplineSet
0 650 m 1
 0 550 l 1
 100 550 l 1
 100 650 l 1
 0 650 l 1
200 650 m 1
 200 550 l 1
 300 550 l 1
 300 650 l 1
 200 650 l 1
50 500 m 1
 0 450 l 1
 0 200 l 1
 50 150 l 1
 250 150 l 1
 300 200 l 1
 300 450 l 1
 250 500 l 1
 50 500 l 1
100 450 m 1
 200 450 l 1
 200 200 l 1
 100 200 l 1
 100 450 l 1
EndSplineSet
EndChar

StartChar: 
Encoding: 85 252 85
Width: 410
VWidth: 1024
LayerCount: 2
Fore
SplineSet
0 650 m 1
 0 550 l 1
 100 550 l 1
 100 650 l 1
 0 650 l 1
200 650 m 1
 200 550 l 1
 300 550 l 1
 300 650 l 1
 200 650 l 1
0 500 m 1
 0 200 l 1
 50 150 l 1
 250 150 l 1
 300 200 l 1
 300 500 l 1
 200 500 l 1
 200 200 l 1
 100 200 l 1
 100 500 l 1
 0 500 l 1
EndSplineSet
EndChar

StartChar: 
Encoding: 86 8364 86
Width: 410
VWidth: 1024
LayerCount: 2
Fore
SplineSet
100 500 m 1
 50 450 l 1
 50 400 l 1
 0 400 l 1
 0 350 l 1
 50 350 l 1
 50 300 l 1
 0 300 l 1
 0 250 l 1
 50 250 l 1
 50 200 l 1
 100 150 l 1
 300 150 l 1
 300 200 l 1
 150 200 l 1
 150 250 l 1
 260 250 l 1
 260 300 l 1
 150 300 l 1
 150 350 l 1
 260 350 l 1
 260 400 l 1
 150 400 l 1
 150 450 l 1
 300 450 l 1
 300 500 l 1
 100 500 l 1
EndSplineSet
EndChar

StartChar: 
Encoding: 87 38 87
Width: 410
VWidth: 1024
LayerCount: 2
Fore
SplineSet
49.999981 599.99986 m 1
 -0.000101 549.99977 l 1
 -0.000101 449.99991 l 1
 49.999981 399.99982 l 1
 -0.000101 349.99976 l 1
 -0.000101 199.99978 l 1
 49.999981 150 l 1
 250.00002 150 l 1
 299.9998 199.99978 l 1
 299.9998 399.99982 l 1
 349.9999 399.99982 l 1
 349.9999 449.99991 l 1
 199.99991 449.99991 l 1
 199.99991 199.99978 l 1
 100.00005 199.99978 l 1
 100.00005 379.99973 l 1
 149.99987 379.99973 l 1
 149.99987 429.9998 l 1
 100.00005 429.9998 l 1
 100.00005 549.99977 l 1
 199.99991 549.99977 l 1
 199.99991 499.99969 l 1
 299.9998 499.99969 l 1
 299.9998 549.99977 l 1
 250.00002 599.99986 l 1
 49.999981 599.99986 l 1
EndSplineSet
EndChar

StartChar: 
Encoding: 88 44 88
Width: 410
VWidth: 1024
LayerCount: 2
Fore
SplineSet
49.99999 150 m 1
 0 100.0002 l 1
 0 50.00009 l 1
 49.99999 50.00009 l 1
 100 100.0002 l 1
 100 150 l 1
 49.99999 150 l 1
EndSplineSet
EndChar

StartChar: 
Encoding: 89 47 89
Width: 410
VWidth: 1024
LayerCount: 2
Fore
SplineSet
150 750 m 1
 0 150 l 1
 100 150 l 1
 250 750 l 1
 150 750 l 1
EndSplineSet
EndChar
